<svg width="108" height="104" viewBox="0 0 108 104" fill="none" xmlns="http://www.w3.org/2000/svg">

<path d="M14.2697 66.0841C16.125 70.5364 17.5214 71.0675 20.242 72.162C22.8736 73.0561 26.8149 74.5198 31.7565 76.4029C41.7608 80.4029 55.3763 85.006 66.0137 80.0917C76.6689 75.2174 87.5274 73.6103 93.3517 68.1947C96.2266 65.3836 97.6954 61.2782 97.591 56.0486C97.5723 50.9728 95.9805 44.7728 94.6341 42.0132C92.7718 38.0916 91.2939 37.8844 88.5465 37.0417C85.8703 36.3592 81.91 35.0478 76.954 33.1712C66.9352 29.1776 53.4957 24.1126 42.89 28.0056C32.2842 31.8987 21.2817 32.3228 15.4785 37.8249C12.6036 40.636 11.1514 44.9739 11.3033 50.662C11.3308 56.0696 12.9657 62.8739 14.2697 66.0841Z" stroke="red" stroke-opacity="15" stroke-width="0.5" stroke-miterlimit="10"/>

</svg>
