<svg fill="none" xmlns="http://www.w3.org/2000/svg">
<path d="M383.475 193.214C374.068 142.289 344.764 97.1967 302.011 67.8564C259.259 38.5161 206.559 27.3315 155.505 36.763C114.662 44.3081 78.4812 67.7282 54.9225 101.871C31.3639 136.014 22.357 178.082 29.8832 218.822C35.9041 251.414 54.6582 280.273 82.0199 299.051C109.382 317.829 143.11 324.987 175.784 318.951C201.924 314.122 225.079 299.133 240.157 277.282C255.234 255.43 260.999 228.507 256.182 202.433C252.329 181.574 240.326 163.104 222.815 151.087C205.303 139.069 183.717 134.488 162.805 138.351C154.524 139.881 146.624 143.022 139.557 147.597C132.49 152.172 126.394 158.089 121.617 165.012C116.84 171.935 113.476 179.728 111.717 187.945C109.957 196.162 109.837 204.643 111.363 212.904C112.579 219.514 115.089 225.82 118.75 231.46C122.411 237.101 127.15 241.965 132.698 245.775C138.245 249.585 144.492 252.267 151.081 253.667C157.67 255.066 164.472 255.157 171.099 253.933C181.803 251.955 191.287 245.819 197.465 236.874C203.644 227.929 206.012 216.905 204.05 206.226C202.471 197.681 197.555 190.114 190.381 185.191C183.207 180.268 174.363 178.391 165.796 179.973C162.402 180.595 159.163 181.879 156.265 183.752C153.367 185.625 150.868 188.049 148.911 190.886C146.953 193.723 145.575 196.917 144.857 200.285C144.138 203.654 144.093 207.129 144.724 210.514C145.734 215.983 148.881 220.826 153.473 223.977C158.065 227.128 163.724 228.33 169.208 227.317C173.59 226.497 177.469 223.976 179.993 220.309C182.517 216.641 183.481 212.125 182.673 207.752C182.028 204.259 180.018 201.166 177.085 199.153C174.152 197.14 170.537 196.373 167.035 197.02C164.233 197.537 161.751 199.141 160.131 201.48C158.511 203.819 157.885 206.702 158.391 209.498C158.591 210.61 159.01 211.671 159.624 212.62C160.237 213.569 161.034 214.387 161.966 215.027C162.899 215.667 163.95 216.116 165.058 216.349C166.166 216.582 167.309 216.593 168.422 216.382C170.219 216.05 171.811 215.019 172.848 213.517C173.884 212.015 174.28 210.164 173.949 208.371C173.675 206.944 172.846 205.683 171.643 204.863C170.44 204.044 168.961 203.733 167.528 203.998" stroke="white" stroke-miterlimit="10"/>
</svg>
